<mxfile host="app.diagrams.net" agent="Mozilla/5.0 (Windows NT 10.0; Win64; x64) AppleWebKit/537.36 (KHTML, like Gecko) Chrome/133.0.0.0 Safari/537.36" version="26.0.16" pages="2">
  <diagram id="C5RBs43oDa-KdzZeNtuy" name="TNLCM">
    <mxGraphModel grid="1" page="1" gridSize="10" guides="1" tooltips="1" connect="1" arrows="1" fold="1" pageScale="1" pageWidth="827" pageHeight="1169" math="0" shadow="0">
      <root>
        <mxCell id="WIyWlLk6GJQsqaUBKTNV-0" />
        <mxCell id="WIyWlLk6GJQsqaUBKTNV-1" parent="WIyWlLk6GJQsqaUBKTNV-0" />
        <mxCell id="y6Eq01IhKlgcqz65k13C-0" value="&lt;b&gt;&lt;font style=&quot;font-size: 15px;&quot;&gt;TNLCM&lt;/font&gt;&lt;/b&gt;" style="html=1;whiteSpace=wrap;horizontal=1;verticalAlign=top;fillColor=#ffe6cc;strokeColor=#d79b00;shadow=1;" vertex="1" parent="WIyWlLk6GJQsqaUBKTNV-1">
          <mxGeometry x="280" y="120" width="240" height="400" as="geometry" />
        </mxCell>
        <mxCell id="Q9Jc-mCsTYCcLn0v_ylN-0" value="Create TN" style="ellipse;whiteSpace=wrap;html=1;shadow=1;" vertex="1" parent="WIyWlLk6GJQsqaUBKTNV-1">
          <mxGeometry x="345" y="250" width="110" height="50" as="geometry" />
        </mxCell>
        <mxCell id="y6Eq01IhKlgcqz65k13C-1" value="Experimenter" style="shape=umlActor;verticalLabelPosition=bottom;verticalAlign=top;html=1;" vertex="1" parent="WIyWlLk6GJQsqaUBKTNV-1">
          <mxGeometry x="180" y="440" width="30" height="60" as="geometry" />
        </mxCell>
        <mxCell id="y6Eq01IhKlgcqz65k13C-2" value="Validate TN" style="ellipse;whiteSpace=wrap;html=1;shadow=1;" vertex="1" parent="WIyWlLk6GJQsqaUBKTNV-1">
          <mxGeometry x="345" y="340" width="110" height="50" as="geometry" />
        </mxCell>
        <mxCell id="jtEOqAO5_xGemDZtm6Sn-1" value="TN owner/Operator" style="shape=umlActor;verticalLabelPosition=bottom;verticalAlign=top;html=1;" vertex="1" parent="WIyWlLk6GJQsqaUBKTNV-1">
          <mxGeometry x="640" y="259" width="30" height="60" as="geometry" />
        </mxCell>
        <mxCell id="y6Eq01IhKlgcqz65k13C-3" value="Play TN" style="ellipse;whiteSpace=wrap;html=1;shadow=1;" vertex="1" parent="WIyWlLk6GJQsqaUBKTNV-1">
          <mxGeometry x="345" y="460" width="110" height="50" as="geometry" />
        </mxCell>
        <mxCell id="y6Eq01IhKlgcqz65k13C-8" value="" style="endArrow=none;html=1;rounded=0;exitX=0;exitY=0.3333333333333333;exitDx=0;exitDy=0;exitPerimeter=0;entryX=1;entryY=0.5;entryDx=0;entryDy=0;" edge="1" parent="WIyWlLk6GJQsqaUBKTNV-1" source="jtEOqAO5_xGemDZtm6Sn-1" target="Q9Jc-mCsTYCcLn0v_ylN-0">
          <mxGeometry width="50" height="50" relative="1" as="geometry">
            <mxPoint x="350" y="344" as="sourcePoint" />
            <mxPoint x="460" y="279" as="targetPoint" />
          </mxGeometry>
        </mxCell>
        <mxCell id="jtEOqAO5_xGemDZtm6Sn-8" value="&amp;lt;&amp;lt;include&amp;gt;&amp;gt;" style="html=1;verticalAlign=bottom;labelBackgroundColor=none;endArrow=open;endFill=0;dashed=1;rounded=0;exitX=0.5;exitY=1;exitDx=0;exitDy=0;entryX=0.5;entryY=0;entryDx=0;entryDy=0;" edge="1" parent="WIyWlLk6GJQsqaUBKTNV-1" source="Q9Jc-mCsTYCcLn0v_ylN-0" target="y6Eq01IhKlgcqz65k13C-2">
          <mxGeometry x="0.2" y="40" width="160" relative="1" as="geometry">
            <mxPoint x="430" y="334" as="sourcePoint" />
            <mxPoint x="520" y="534" as="targetPoint" />
            <mxPoint as="offset" />
          </mxGeometry>
        </mxCell>
        <mxCell id="jtEOqAO5_xGemDZtm6Sn-10" value="" style="endArrow=none;html=1;rounded=0;entryX=0;entryY=0.5;entryDx=0;entryDy=0;exitX=1;exitY=0.3333333333333333;exitDx=0;exitDy=0;exitPerimeter=0;" edge="1" parent="WIyWlLk6GJQsqaUBKTNV-1" source="y6Eq01IhKlgcqz65k13C-1" target="y6Eq01IhKlgcqz65k13C-3">
          <mxGeometry width="50" height="50" relative="1" as="geometry">
            <mxPoint x="220" y="434" as="sourcePoint" />
            <mxPoint x="355" y="389" as="targetPoint" />
          </mxGeometry>
        </mxCell>
        <mxCell id="SnI0zhCJ4MebKeHOOnLd-0" value="Platform operator" style="shape=umlActor;verticalLabelPosition=bottom;verticalAlign=top;html=1;outlineConnect=0;" vertex="1" parent="WIyWlLk6GJQsqaUBKTNV-1">
          <mxGeometry x="180" y="170" width="30" height="60" as="geometry" />
        </mxCell>
        <mxCell id="SnI0zhCJ4MebKeHOOnLd-2" value="" style="endArrow=none;html=1;rounded=0;exitX=1;exitY=0.3333333333333333;exitDx=0;exitDy=0;exitPerimeter=0;entryX=0;entryY=0.5;entryDx=0;entryDy=0;" edge="1" parent="WIyWlLk6GJQsqaUBKTNV-1" source="SnI0zhCJ4MebKeHOOnLd-0" target="jtEOqAO5_xGemDZtm6Sn-12">
          <mxGeometry width="50" height="50" relative="1" as="geometry">
            <mxPoint x="270" y="200" as="sourcePoint" />
            <mxPoint x="340" y="185" as="targetPoint" />
          </mxGeometry>
        </mxCell>
        <mxCell id="jtEOqAO5_xGemDZtm6Sn-12" value="Install TNLCM" style="ellipse;whiteSpace=wrap;html=1;shadow=1;" vertex="1" parent="WIyWlLk6GJQsqaUBKTNV-1">
          <mxGeometry x="345" y="165" width="110" height="50" as="geometry" />
        </mxCell>
        <mxCell id="SnI0zhCJ4MebKeHOOnLd-9" value="&amp;lt;&amp;lt;require&amp;gt;&amp;gt;" style="html=1;verticalAlign=bottom;labelBackgroundColor=none;endArrow=open;endFill=0;dashed=1;rounded=0;exitX=0.5;exitY=0;exitDx=0;exitDy=0;entryX=0.5;entryY=1;entryDx=0;entryDy=0;" edge="1" parent="WIyWlLk6GJQsqaUBKTNV-1" source="Q9Jc-mCsTYCcLn0v_ylN-0" target="jtEOqAO5_xGemDZtm6Sn-12">
          <mxGeometry x="-0.4286" y="-40" width="160" relative="1" as="geometry">
            <mxPoint x="560" y="140" as="sourcePoint" />
            <mxPoint x="720" y="140" as="targetPoint" />
            <mxPoint as="offset" />
          </mxGeometry>
        </mxCell>
        <mxCell id="aJQV_-scjQw1Zn4_jPfL-1" value="Suspend TN" style="ellipse;whiteSpace=wrap;html=1;shadow=1;" vertex="1" parent="WIyWlLk6GJQsqaUBKTNV-1">
          <mxGeometry x="345" y="400" width="110" height="50" as="geometry" />
        </mxCell>
        <mxCell id="aJQV_-scjQw1Zn4_jPfL-3" value="" style="endArrow=none;html=1;rounded=0;exitX=1;exitY=0.3333333333333333;exitDx=0;exitDy=0;exitPerimeter=0;entryX=0;entryY=0.5;entryDx=0;entryDy=0;" edge="1" parent="WIyWlLk6GJQsqaUBKTNV-1" source="y6Eq01IhKlgcqz65k13C-1" target="aJQV_-scjQw1Zn4_jPfL-1">
          <mxGeometry width="50" height="50" relative="1" as="geometry">
            <mxPoint x="260" y="420" as="sourcePoint" />
            <mxPoint x="310" y="370" as="targetPoint" />
          </mxGeometry>
        </mxCell>
      </root>
    </mxGraphModel>
  </diagram>
  <diagram id="r008zTaT6P4VwaudoZd4" name="State Machine">
    <mxGraphModel grid="1" page="1" gridSize="10" guides="1" tooltips="1" connect="1" arrows="1" fold="1" pageScale="1" pageWidth="827" pageHeight="1169" math="0" shadow="0">
      <root>
        <mxCell id="0" />
        <mxCell id="1" parent="0" />
        <mxCell id="WIWipPIyYG1X73hAsyag-2" style="edgeStyle=orthogonalEdgeStyle;rounded=0;orthogonalLoop=1;jettySize=auto;html=1;entryX=0;entryY=1;entryDx=0;entryDy=0;exitX=0;exitY=0;exitDx=0;exitDy=0;strokeColor=#00CC00;" edge="1" parent="1" source="fa4FeSXZY2sneAve9pFX-2" target="WIWipPIyYG1X73hAsyag-1">
          <mxGeometry relative="1" as="geometry" />
        </mxCell>
        <mxCell id="WIWipPIyYG1X73hAsyag-3" value="Experimenter destroy TN" style="edgeLabel;html=1;align=center;verticalAlign=middle;resizable=0;points=[];rotation=-90;" connectable="0" vertex="1" parent="WIWipPIyYG1X73hAsyag-2">
          <mxGeometry x="0.0167" relative="1" as="geometry">
            <mxPoint x="-12" y="3" as="offset" />
          </mxGeometry>
        </mxCell>
        <mxCell id="fa4FeSXZY2sneAve9pFX-2" value="&lt;b&gt;Activated&lt;/b&gt;" style="ellipse;whiteSpace=wrap;html=1;shadow=1;fillColor=#d5e8d4;strokeColor=#82b366;" vertex="1" parent="1">
          <mxGeometry x="662" y="400" width="120" height="40" as="geometry" />
        </mxCell>
        <mxCell id="yZz3-7xbKPzXbkBPOg7f-8" value="Experimenter plays TN" style="edgeStyle=orthogonalEdgeStyle;rounded=0;orthogonalLoop=1;jettySize=auto;html=1;verticalAlign=bottom;fillColor=#d5e8d4;strokeColor=#00CC00;" edge="1" parent="1" source="yY9qmUEX3DpBMNIjSJe1-1" target="fa4FeSXZY2sneAve9pFX-2">
          <mxGeometry relative="1" as="geometry" />
        </mxCell>
        <mxCell id="yY9qmUEX3DpBMNIjSJe1-1" value="&lt;b&gt;Validated&lt;/b&gt;" style="ellipse;whiteSpace=wrap;html=1;shadow=1;fillColor=#dae8fc;strokeColor=#6c8ebf;" vertex="1" parent="1">
          <mxGeometry x="405" y="400" width="120" height="40" as="geometry" />
        </mxCell>
        <mxCell id="yZz3-7xbKPzXbkBPOg7f-4" value="TN Owner/Operator creates TN" style="edgeStyle=orthogonalEdgeStyle;rounded=0;orthogonalLoop=1;jettySize=auto;html=1;entryX=0;entryY=0.5;entryDx=0;entryDy=0;verticalAlign=bottom;strokeColor=#00CC00;" edge="1" parent="1" source="A_WOb0aHzAX7PD_KRezC-3" target="yY9qmUEX3DpBMNIjSJe1-1">
          <mxGeometry relative="1" as="geometry">
            <mxPoint as="offset" />
            <mxPoint x="285" y="420" as="sourcePoint" />
          </mxGeometry>
        </mxCell>
        <mxCell id="yZz3-7xbKPzXbkBPOg7f-7" value="TND" style="whiteSpace=wrap;html=1;shape=mxgraph.basic.document;fillColor=#f5f5f5;fontColor=#333333;strokeColor=#666666;" vertex="1" parent="1">
          <mxGeometry x="316" y="425" width="46" height="55" as="geometry" />
        </mxCell>
        <mxCell id="5D5FwA2SSQigyPHS4fZP-1" value="&lt;b&gt;Suspended&lt;/b&gt;" style="ellipse;whiteSpace=wrap;html=1;shadow=1;fillColor=#fff2cc;strokeColor=#d6b656;" vertex="1" parent="1">
          <mxGeometry x="932" y="400" width="120" height="40" as="geometry" />
        </mxCell>
        <mxCell id="5D5FwA2SSQigyPHS4fZP-4" value="" style="endArrow=classic;html=1;rounded=0;exitX=1;exitY=0.5;exitDx=0;exitDy=0;strokeColor=#FF0000;" edge="1" parent="1" source="fa4FeSXZY2sneAve9pFX-2" target="5D5FwA2SSQigyPHS4fZP-1">
          <mxGeometry width="50" height="50" relative="1" as="geometry">
            <mxPoint x="812" y="460" as="sourcePoint" />
            <mxPoint x="862" y="410" as="targetPoint" />
          </mxGeometry>
        </mxCell>
        <mxCell id="5D5FwA2SSQigyPHS4fZP-5" value="Experimenter suspends TN" style="edgeLabel;html=1;align=center;verticalAlign=middle;resizable=0;points=[];" connectable="0" vertex="1" parent="5D5FwA2SSQigyPHS4fZP-4">
          <mxGeometry x="-0.4745" y="-1" relative="1" as="geometry">
            <mxPoint x="31" y="-11" as="offset" />
          </mxGeometry>
        </mxCell>
        <mxCell id="5D5FwA2SSQigyPHS4fZP-7" value="" style="curved=1;endArrow=classic;html=1;rounded=0;exitX=0.5;exitY=1;exitDx=0;exitDy=0;entryX=0.5;entryY=1;entryDx=0;entryDy=0;strokeColor=#FF0000;" edge="1" parent="1" source="5D5FwA2SSQigyPHS4fZP-1" target="fa4FeSXZY2sneAve9pFX-2">
          <mxGeometry width="50" height="50" relative="1" as="geometry">
            <mxPoint x="862" y="540" as="sourcePoint" />
            <mxPoint x="912" y="490" as="targetPoint" />
            <Array as="points">
              <mxPoint x="862" y="490" />
            </Array>
          </mxGeometry>
        </mxCell>
        <mxCell id="5D5FwA2SSQigyPHS4fZP-8" value="Experimenter plays TN" style="edgeLabel;html=1;align=center;verticalAlign=middle;resizable=0;points=[];" connectable="0" vertex="1" parent="5D5FwA2SSQigyPHS4fZP-7">
          <mxGeometry x="-0.1065" y="-20" relative="1" as="geometry">
            <mxPoint y="15" as="offset" />
          </mxGeometry>
        </mxCell>
        <mxCell id="A_WOb0aHzAX7PD_KRezC-3" value="" style="ellipse;shape=doubleEllipse;html=1;dashed=0;whiteSpace=wrap;aspect=fixed;" vertex="1" parent="1">
          <mxGeometry x="200" y="405" width="30" height="30" as="geometry" />
        </mxCell>
        <mxCell id="d1dHMeWgjPYRJwi6GH1A-4" style="edgeStyle=orthogonalEdgeStyle;rounded=0;orthogonalLoop=1;jettySize=auto;html=1;entryX=0.5;entryY=1;entryDx=0;entryDy=0;exitX=1;exitY=0.5;exitDx=0;exitDy=0;curved=1;strokeColor=#00CC00;" edge="1" parent="1" source="d1dHMeWgjPYRJwi6GH1A-1" target="fa4FeSXZY2sneAve9pFX-2">
          <mxGeometry relative="1" as="geometry" />
        </mxCell>
        <mxCell id="d1dHMeWgjPYRJwi6GH1A-6" value="Experimenter plays TN" style="edgeLabel;html=1;align=center;verticalAlign=middle;resizable=0;points=[];rotation=-60;" connectable="0" vertex="1" parent="d1dHMeWgjPYRJwi6GH1A-4">
          <mxGeometry x="0.22" relative="1" as="geometry">
            <mxPoint x="-8" y="23" as="offset" />
          </mxGeometry>
        </mxCell>
        <mxCell id="d1dHMeWgjPYRJwi6GH1A-1" value="&lt;b&gt;Failed&lt;/b&gt;" style="ellipse;whiteSpace=wrap;html=1;shadow=1;fillColor=#f8cecc;strokeColor=#b85450;" vertex="1" parent="1">
          <mxGeometry x="532" y="560" width="120" height="40" as="geometry" />
        </mxCell>
        <mxCell id="d1dHMeWgjPYRJwi6GH1A-3" value="" style="endArrow=classic;html=1;rounded=0;exitX=0.5;exitY=1;exitDx=0;exitDy=0;entryX=0;entryY=0.5;entryDx=0;entryDy=0;edgeStyle=orthogonalEdgeStyle;curved=1;strokeColor=#00CC00;" edge="1" parent="1" source="yY9qmUEX3DpBMNIjSJe1-1" target="d1dHMeWgjPYRJwi6GH1A-1">
          <mxGeometry width="50" height="50" relative="1" as="geometry">
            <mxPoint x="432" y="570" as="sourcePoint" />
            <mxPoint x="482" y="520" as="targetPoint" />
          </mxGeometry>
        </mxCell>
        <mxCell id="d1dHMeWgjPYRJwi6GH1A-5" value="Experimenter plays TN" style="edgeLabel;html=1;align=center;verticalAlign=middle;resizable=0;points=[];rotation=70;" connectable="0" vertex="1" parent="d1dHMeWgjPYRJwi6GH1A-3">
          <mxGeometry x="-0.4747" y="-2" relative="1" as="geometry">
            <mxPoint x="2" y="26" as="offset" />
          </mxGeometry>
        </mxCell>
        <mxCell id="9NeffdRxZNM7xzOlIs-S-1" style="edgeStyle=orthogonalEdgeStyle;rounded=0;orthogonalLoop=1;jettySize=auto;html=1;entryX=1;entryY=0;entryDx=0;entryDy=0;exitX=1;exitY=1;exitDx=0;exitDy=0;strokeColor=#00CC00;" edge="1" parent="1" source="WIWipPIyYG1X73hAsyag-1" target="fa4FeSXZY2sneAve9pFX-2">
          <mxGeometry relative="1" as="geometry" />
        </mxCell>
        <mxCell id="9NeffdRxZNM7xzOlIs-S-2" value="Experimenter plays TN again" style="edgeLabel;html=1;align=center;verticalAlign=middle;resizable=0;points=[];rotation=-90;" connectable="0" vertex="1" parent="9NeffdRxZNM7xzOlIs-S-1">
          <mxGeometry x="-0.1129" y="-2" relative="1" as="geometry">
            <mxPoint x="10" y="9" as="offset" />
          </mxGeometry>
        </mxCell>
        <mxCell id="WIWipPIyYG1X73hAsyag-1" value="&lt;b&gt;Destroyed&lt;/b&gt;" style="ellipse;whiteSpace=wrap;html=1;shadow=1;fillColor=#f8cecc;strokeColor=#b85450;" vertex="1" parent="1">
          <mxGeometry x="662" y="220" width="120" height="40" as="geometry" />
        </mxCell>
        <mxCell id="huq2IHNdYrzzzlSz62JI-1" value="" style="endArrow=classic;html=1;rounded=0;exitX=0;exitY=0;exitDx=0;exitDy=0;entryX=1;entryY=0;entryDx=0;entryDy=0;edgeStyle=orthogonalEdgeStyle;curved=1;strokeColor=#00CC00;" edge="1" parent="1" source="d1dHMeWgjPYRJwi6GH1A-1" target="d1dHMeWgjPYRJwi6GH1A-1">
          <mxGeometry width="50" height="50" relative="1" as="geometry">
            <mxPoint x="700" y="560" as="sourcePoint" />
            <mxPoint x="750" y="510" as="targetPoint" />
            <Array as="points">
              <mxPoint x="592" y="520" />
            </Array>
          </mxGeometry>
        </mxCell>
        <mxCell id="huq2IHNdYrzzzlSz62JI-3" value="Fail TN" style="edgeLabel;html=1;align=center;verticalAlign=middle;resizable=0;points=[];" connectable="0" vertex="1" parent="huq2IHNdYrzzzlSz62JI-1">
          <mxGeometry x="0.339" y="16" relative="1" as="geometry">
            <mxPoint x="-26" y="5" as="offset" />
          </mxGeometry>
        </mxCell>
        <mxCell id="rToHqUW8g55TQVBWZGEc-1" value="&lt;b&gt;Purge&lt;/b&gt;" style="ellipse;whiteSpace=wrap;html=1;shadow=1;fillColor=#f8cecc;strokeColor=#b85450;" vertex="1" parent="1">
          <mxGeometry x="532" y="120" width="120" height="40" as="geometry" />
        </mxCell>
        <mxCell id="kg9zK9eM-YE-fNll5cL--1" style="edgeStyle=orthogonalEdgeStyle;rounded=0;orthogonalLoop=1;jettySize=auto;html=1;entryX=0;entryY=0.5;entryDx=0;entryDy=0;exitX=0.5;exitY=0;exitDx=0;exitDy=0;strokeColor=#00CC00;curved=1;" edge="1" parent="1" source="yY9qmUEX3DpBMNIjSJe1-1" target="rToHqUW8g55TQVBWZGEc-1">
          <mxGeometry relative="1" as="geometry">
            <mxPoint x="550" y="382" as="sourcePoint" />
            <mxPoint x="550" y="230" as="targetPoint" />
          </mxGeometry>
        </mxCell>
        <mxCell id="kg9zK9eM-YE-fNll5cL--2" value="Experimenter purge TN" style="edgeLabel;html=1;align=center;verticalAlign=middle;resizable=0;points=[];rotation=-80;" connectable="0" vertex="1" parent="kg9zK9eM-YE-fNll5cL--1">
          <mxGeometry x="0.0167" relative="1" as="geometry">
            <mxPoint y="-4" as="offset" />
          </mxGeometry>
        </mxCell>
        <mxCell id="kg9zK9eM-YE-fNll5cL--4" value="" style="endArrow=classic;html=1;rounded=0;exitX=0.5;exitY=0;exitDx=0;exitDy=0;entryX=1;entryY=0.5;entryDx=0;entryDy=0;edgeStyle=orthogonalEdgeStyle;curved=1;fillColor=#d5e8d4;strokeColor=#00CC00;" edge="1" parent="1" source="WIWipPIyYG1X73hAsyag-1" target="rToHqUW8g55TQVBWZGEc-1">
          <mxGeometry width="50" height="50" relative="1" as="geometry">
            <mxPoint x="750" y="160" as="sourcePoint" />
            <mxPoint x="800" y="110" as="targetPoint" />
          </mxGeometry>
        </mxCell>
        <mxCell id="kg9zK9eM-YE-fNll5cL--5" value="Experimenter purge TN" style="edgeLabel;html=1;align=center;verticalAlign=middle;resizable=0;points=[];rotation=45;" connectable="0" vertex="1" parent="kg9zK9eM-YE-fNll5cL--4">
          <mxGeometry x="-0.2271" y="11" relative="1" as="geometry">
            <mxPoint x="11" y="-2" as="offset" />
          </mxGeometry>
        </mxCell>
        <mxCell id="3QMv741NLXrKF_OBITJ0-3" value="" style="endArrow=classic;html=1;rounded=0;exitX=0.5;exitY=1;exitDx=0;exitDy=0;entryX=1;entryY=0.5;entryDx=0;entryDy=0;edgeStyle=orthogonalEdgeStyle;curved=1;fillColor=#d5e8d4;strokeColor=#00CC00;" edge="1" parent="1" source="d1dHMeWgjPYRJwi6GH1A-1" target="WIWipPIyYG1X73hAsyag-1">
          <mxGeometry width="50" height="50" relative="1" as="geometry">
            <mxPoint x="680" y="680" as="sourcePoint" />
            <mxPoint x="730" y="630" as="targetPoint" />
            <Array as="points">
              <mxPoint x="592" y="610" />
              <mxPoint x="1110" y="610" />
              <mxPoint x="1110" y="240" />
            </Array>
          </mxGeometry>
        </mxCell>
        <mxCell id="3QMv741NLXrKF_OBITJ0-4" value="Experimenter destroy TN" style="edgeLabel;html=1;align=center;verticalAlign=middle;resizable=0;points=[];" connectable="0" vertex="1" parent="3QMv741NLXrKF_OBITJ0-3">
          <mxGeometry x="-0.7096" y="3" relative="1" as="geometry">
            <mxPoint x="70" y="-7" as="offset" />
          </mxGeometry>
        </mxCell>
      </root>
    </mxGraphModel>
  </diagram>
</mxfile>
